<svg xmlns="http://www.w3.org/2000/svg" xmlns:xlink="http://www.w3.org/1999/xlink" contentStyleType="text/css" height="376px" preserveAspectRatio="none" style="width:919px;height:376px;background:#FFFFFF;" version="1.1" viewBox="0 0 919 376" width="919px" zoomAndPan="magnify"><defs/><g><!--class CancelTaskException--><a href="java:org.sterl.spring.persistent_tasks.task.exception.CancelTaskException" target="_top" title="java:org.sterl.spring.persistent_tasks.task.exception.CancelTaskException" xlink:actuate="onRequest" xlink:href="java:org.sterl.spring.persistent_tasks.task.exception.CancelTaskException" xlink:show="new" xlink:title="java:org.sterl.spring.persistent_tasks.task.exception.CancelTaskException" xlink:type="simple"><g id="elem_CancelTaskException"><rect codeLine="1" fill="#F1F1F1" height="97.4648" id="CancelTaskException" rx="2.5" ry="2.5" style="stroke:#181818;stroke-width:0.5;" width="419" x="7" y="272.47"/><ellipse cx="139.25" cy="288.47" fill="#ADD1B2" rx="11" ry="11" style="stroke:#181818;stroke-width:1.0;"/><path d="M141.7231,294.6131 Q141.1421,294.9119 140.5029,295.0613 Q139.8638,295.2107 139.1582,295.2107 Q136.6514,295.2107 135.3315,293.5589 Q134.0117,291.907 134.0117,288.7859 Q134.0117,285.6565 135.3315,284.0047 Q136.6514,282.3528 139.1582,282.3528 Q139.8638,282.3528 140.5112,282.5022 Q141.1587,282.6516 141.7231,282.9505 L141.7231,285.6731 Q141.0923,285.0921 140.4988,284.8223 Q139.9053,284.5525 139.2744,284.5525 Q137.9297,284.5525 137.2449,285.6192 Q136.5601,286.6858 136.5601,288.7859 Q136.5601,290.8777 137.2449,291.9444 Q137.9297,293.011 139.2744,293.011 Q139.9053,293.011 140.4988,292.7412 Q141.0923,292.4715 141.7231,291.8904 Z " fill="#000000"/><text fill="#000000" font-family="sans-serif" font-size="14" lengthAdjust="spacing" textLength="146" x="159.75" y="293.761">CancelTaskException</text><line style="stroke:#181818;stroke-width:0.5;" x1="8" x2="425" y1="304.47" y2="304.47"/><rect fill="none" height="6" style="stroke:#C82930;stroke-width:1.0;" width="6" x="15" y="315.2141"/><text fill="#000000" font-family="sans-serif" font-size="14" lengthAdjust="spacing" text-decoration="underline" textLength="152" x="27" y="322.0052">serialVersionUID: long</text><line style="stroke:#181818;stroke-width:0.5;" x1="8" x2="425" y1="328.9583" y2="328.9583"/><ellipse cx="18" cy="342.7024" fill="#84BE84" rx="3" ry="3" style="stroke:#038048;stroke-width:1.0;"/><text fill="#000000" font-family="sans-serif" font-size="14" lengthAdjust="spacing" textLength="393" x="27" y="346.4934">CancelTaskException(message: String, cause: Throwable)</text><ellipse cx="18" cy="359.1907" fill="#84BE84" rx="3" ry="3" style="stroke:#038048;stroke-width:1.0;"/><text fill="#000000" font-family="sans-serif" font-size="14" lengthAdjust="spacing" textLength="265" x="27" y="362.9817">CancelTaskException(message: String)</text></g></a><!--class TaskException--><a href="java:org.sterl.spring.persistent_tasks.task.exception.TaskException" target="_top" title="java:org.sterl.spring.persistent_tasks.task.exception.TaskException" xlink:actuate="onRequest" xlink:href="java:org.sterl.spring.persistent_tasks.task.exception.TaskException" xlink:show="new" xlink:title="java:org.sterl.spring.persistent_tasks.task.exception.TaskException" xlink:type="simple"><g id="elem_TaskException"><rect codeLine="22" fill="#F1F1F1" height="97.4648" id="TaskException" rx="2.5" ry="2.5" style="stroke:#181818;stroke-width:0.5;" width="373" x="265" y="115"/><ellipse cx="397.25" cy="131" fill="#ADD1B2" rx="11" ry="11" style="stroke:#181818;stroke-width:1.0;"/><path d="M399.7231,137.1431 Q399.1421,137.4419 398.5029,137.5913 Q397.8638,137.7407 397.1582,137.7407 Q394.6514,137.7407 393.3315,136.0889 Q392.0117,134.437 392.0117,131.3159 Q392.0117,128.1865 393.3315,126.5347 Q394.6514,124.8828 397.1582,124.8828 Q397.8638,124.8828 398.5112,125.0322 Q399.1587,125.1816 399.7231,125.4805 L399.7231,128.2031 Q399.0923,127.6221 398.4988,127.3523 Q397.9053,127.0825 397.2744,127.0825 Q395.9297,127.0825 395.2449,128.1492 Q394.5601,129.2158 394.5601,131.3159 Q394.5601,133.4077 395.2449,134.4744 Q395.9297,135.541 397.2744,135.541 Q397.9053,135.541 398.4988,135.2712 Q399.0923,135.0015 399.7231,134.4204 Z " fill="#000000"/><text fill="#000000" font-family="sans-serif" font-size="14" lengthAdjust="spacing" textLength="100" x="417.75" y="136.291">TaskException</text><line style="stroke:#181818;stroke-width:0.5;" x1="266" x2="637" y1="147" y2="147"/><rect fill="none" height="6" style="stroke:#C82930;stroke-width:1.0;" width="6" x="273" y="157.7441"/><text fill="#000000" font-family="sans-serif" font-size="14" lengthAdjust="spacing" text-decoration="underline" textLength="152" x="285" y="164.5352">serialVersionUID: long</text><line style="stroke:#181818;stroke-width:0.5;" x1="266" x2="637" y1="171.4883" y2="171.4883"/><ellipse cx="276" cy="185.2324" fill="#84BE84" rx="3" ry="3" style="stroke:#038048;stroke-width:1.0;"/><text fill="#000000" font-family="sans-serif" font-size="14" lengthAdjust="spacing" textLength="347" x="285" y="189.0234">TaskException(message: String, cause: Throwable)</text><ellipse cx="276" cy="201.7207" fill="#84BE84" rx="3" ry="3" style="stroke:#038048;stroke-width:1.0;"/><text fill="#000000" font-family="sans-serif" font-size="14" lengthAdjust="spacing" textLength="219" x="285" y="205.5117">TaskException(message: String)</text></g></a><!--class RuntimeException--><g id="elem_RuntimeException"><rect codeLine="14" fill="#F1F1F1" height="48" id="RuntimeException" rx="2.5" ry="2.5" style="stroke:#181818;stroke-width:0.5;" width="157" x="373" y="7"/><ellipse cx="388" cy="23" fill="#ADD1B2" rx="11" ry="11" style="stroke:#181818;stroke-width:1.0;"/><path d="M390.4731,29.1431 Q389.8921,29.4419 389.2529,29.5913 Q388.6138,29.7407 387.9082,29.7407 Q385.4014,29.7407 384.0815,28.0889 Q382.7617,26.437 382.7617,23.3159 Q382.7617,20.1865 384.0815,18.5347 Q385.4014,16.8828 387.9082,16.8828 Q388.6138,16.8828 389.2612,17.0322 Q389.9087,17.1816 390.4731,17.4805 L390.4731,20.2031 Q389.8423,19.6221 389.2488,19.3523 Q388.6553,19.0825 388.0244,19.0825 Q386.6797,19.0825 385.9949,20.1492 Q385.3101,21.2158 385.3101,23.3159 Q385.3101,25.4077 385.9949,26.4744 Q386.6797,27.541 388.0244,27.541 Q388.6553,27.541 389.2488,27.2712 Q389.8423,27.0015 390.4731,26.4204 Z " fill="#000000"/><text fill="#000000" font-family="sans-serif" font-size="14" lengthAdjust="spacing" textLength="125" x="402" y="28.291">RuntimeException</text><line style="stroke:#181818;stroke-width:0.5;" x1="374" x2="529" y1="39" y2="39"/><line style="stroke:#181818;stroke-width:0.5;" x1="374" x2="529" y1="47" y2="47"/></g><!--class FailTaskNoRetryException--><a href="java:org.sterl.spring.persistent_tasks.task.exception.FailTaskNoRetryException" target="_top" title="java:org.sterl.spring.persistent_tasks.task.exception.FailTaskNoRetryException" xlink:actuate="onRequest" xlink:href="java:org.sterl.spring.persistent_tasks.task.exception.FailTaskNoRetryException" xlink:show="new" xlink:title="java:org.sterl.spring.persistent_tasks.task.exception.FailTaskNoRetryException" xlink:type="simple"><g id="elem_FailTaskNoRetryException"><rect codeLine="17" fill="#F1F1F1" height="97.4648" id="FailTaskNoRetryException" rx="2.5" ry="2.5" style="stroke:#181818;stroke-width:0.5;" width="451" x="461" y="272.47"/><ellipse cx="593.25" cy="288.47" fill="#ADD1B2" rx="11" ry="11" style="stroke:#181818;stroke-width:1.0;"/><path d="M595.7231,294.6131 Q595.1421,294.9119 594.5029,295.0613 Q593.8638,295.2107 593.1582,295.2107 Q590.6514,295.2107 589.3315,293.5589 Q588.0117,291.907 588.0117,288.7859 Q588.0117,285.6565 589.3315,284.0047 Q590.6514,282.3528 593.1582,282.3528 Q593.8638,282.3528 594.5112,282.5022 Q595.1587,282.6516 595.7231,282.9505 L595.7231,285.6731 Q595.0923,285.0921 594.4988,284.8223 Q593.9053,284.5525 593.2744,284.5525 Q591.9297,284.5525 591.2449,285.6192 Q590.5601,286.6858 590.5601,288.7859 Q590.5601,290.8777 591.2449,291.9444 Q591.9297,293.011 593.2744,293.011 Q593.9053,293.011 594.4988,292.7412 Q595.0923,292.4715 595.7231,291.8904 Z " fill="#000000"/><text fill="#000000" font-family="sans-serif" font-size="14" lengthAdjust="spacing" textLength="178" x="613.75" y="293.761">FailTaskNoRetryException</text><line style="stroke:#181818;stroke-width:0.5;" x1="462" x2="911" y1="304.47" y2="304.47"/><rect fill="none" height="6" style="stroke:#C82930;stroke-width:1.0;" width="6" x="469" y="315.2141"/><text fill="#000000" font-family="sans-serif" font-size="14" lengthAdjust="spacing" text-decoration="underline" textLength="152" x="481" y="322.0052">serialVersionUID: long</text><line style="stroke:#181818;stroke-width:0.5;" x1="462" x2="911" y1="328.9583" y2="328.9583"/><ellipse cx="472" cy="342.7024" fill="#84BE84" rx="3" ry="3" style="stroke:#038048;stroke-width:1.0;"/><text fill="#000000" font-family="sans-serif" font-size="14" lengthAdjust="spacing" textLength="425" x="481" y="346.4934">FailTaskNoRetryException(message: String, cause: Throwable)</text><ellipse cx="472" cy="359.1907" fill="#84BE84" rx="3" ry="3" style="stroke:#038048;stroke-width:1.0;"/><text fill="#000000" font-family="sans-serif" font-size="14" lengthAdjust="spacing" textLength="297" x="481" y="362.9817">FailTaskNoRetryException(message: String)</text></g></a><!--reverse link TaskException to CancelTaskException--><g id="link_TaskException_CancelTaskException"><path codeLine="8" d="M363.7366,222.7897 C335.2966,241.5997 317.76,253.21 289.31,272.03 " fill="none" id="TaskException-backto-CancelTaskException" style="stroke:#181818;stroke-width:1.0;"/><polygon fill="none" points="378.75,212.86,360.4267,217.7853,367.0466,227.7942,378.75,212.86" style="stroke:#181818;stroke-width:1.0;"/></g><!--reverse link RuntimeException to TaskException--><g id="link_RuntimeException_TaskException"><path codeLine="16" d="M451.5,73.37 C451.5,89.82 451.5,94.43 451.5,114.66 " fill="none" id="RuntimeException-backto-TaskException" style="stroke:#181818;stroke-width:1.0;"/><polygon fill="none" points="451.5,55.37,445.5,73.37,457.5,73.37,451.5,55.37" style="stroke:#181818;stroke-width:1.0;"/></g><!--reverse link TaskException to FailTaskNoRetryException--><g id="link_TaskException_FailTaskNoRetryException"><path codeLine="24" d="M539.2634,222.7897 C567.7034,241.5997 585.24,253.21 613.69,272.03 " fill="none" id="TaskException-backto-FailTaskNoRetryException" style="stroke:#181818;stroke-width:1.0;"/><polygon fill="none" points="524.25,212.86,535.9534,227.7942,542.5733,217.7853,524.25,212.86" style="stroke:#181818;stroke-width:1.0;"/></g><!--SRC=[fPBBQiCm44NNqLTecT1Q7s2wQrh89ekyDY6KYHWSDOfaD9D7SVBliHswCBL1SJS3kd3FC0Tf2qJo7Pn6km3QVrmqvcoya-lrDvmWzI5Jn1YieZmObwaS0vaoSVp5PO5KDHN-zbGBQxEHXHWa1J6mqJT960pOLGNoRZaPfz9wbud1IqjtU40Yo32LSwxslqeDHogVYrtmPzXQ7CKLH-8cT7rjyywYp9l9spL9sfG8s187q2pRE7rzzJFLmr6adTdHiJbWKz2Vi7RKjFEeVuAfhKtz33dy_DzF5p1QLHSWpbfi-ydlrOMz0m00]--></g></svg>